<svg width="1500" height="357" viewBox="0 0 1500 357" fill="none" xmlns="http://www.w3.org/2000/svg">
<rect width="1500" height="357" fill="#E5E5E5"/>
<g id="Frame 1">
<g clip-path="url(#clip0)">
<rect width="1500" height="357" fill="white"/>
<g id="Group 2">
<path id="Union" fill-rule="evenodd" clip-rule="evenodd" d="M1204.95 97.3152C1207.86 103.023 1209.79 109.178 1210.66 115.525C1212.51 128.374 1212.62 138.151 1212.79 152.13C1212.86 158.589 1212.94 165.945 1213.21 174.915C1213.39 181.071 1213.22 187.227 1213.05 193.383C1212.91 198.319 1212.77 203.254 1212.81 208.19C1212.93 213.042 1212.35 217.886 1211.11 222.578C1210.22 225.599 1209.08 228.539 1207.7 231.371C1204.39 239.261 1202.45 247.661 1201.97 256.206L1201.96 256.398C1201.7 262.8 1201.4 270.31 1205.39 277.088C1207.97 281.686 1212.26 285.076 1217.33 286.515C1219.38 287.17 1221.56 287.384 1223.7 287.142C1225.84 286.901 1227.91 286.21 1229.77 285.114C1237.15 280.697 1239.36 271.31 1239.85 269.193C1241.81 260.905 1240.02 253.801 1239.17 250.373L1239.16 250.347C1238.56 247.952 1238.09 246.958 1236.7 244.046C1235.73 242.017 1234.31 239.057 1232.1 234.043C1227.18 222.891 1226.58 220.37 1226.28 219.009C1225.18 213.871 1225.41 210.14 1225.72 204.906C1225.77 204.048 1225.83 203.151 1225.88 202.2C1226.38 192.964 1226.16 187.176 1225.96 181.97C1225.71 175.615 1225.5 170.127 1226.69 160.295C1227.48 153.68 1228.51 148.437 1231.8 144.162C1232.79 142.881 1236.05 138.686 1240.73 138.686C1242.58 138.747 1244.36 139.37 1245.84 140.471C1247.73 141.824 1248.54 143.389 1249.41 145.069C1250.1 146.407 1250.82 147.818 1252.17 149.254C1254.18 151.375 1256.82 152.79 1259.7 153.287C1260.95 153.579 1268.64 155.374 1273.44 149.596C1276.07 146.46 1276.74 142.367 1277.86 135.48C1278.21 133.318 1278.37 131.633 1278.52 130.056C1278.77 127.479 1278.98 125.193 1279.97 121.595C1281.61 115.596 1283.12 114.245 1283.88 113.7C1286.36 111.937 1289.2 112.902 1290.8 113.447L1290.8 113.448C1292.96 114.179 1294.02 115.214 1295.2 116.355C1296.27 117.385 1297.42 118.501 1299.54 119.559C1301.67 120.627 1304.86 122.221 1307.97 120.829C1309.29 120.244 1310.55 119.145 1314.19 112.299C1316.47 108.052 1317.64 105.362 1318.46 103.492C1319.51 101.091 1319.97 100.045 1321.42 98.7974C1326.14 94.7642 1332 96.6094 1332.51 96.7808C1334.75 97.6272 1336.75 99.0123 1338.34 100.814C1339.67 102.206 1342.92 105.946 1345.05 113.297C1347.66 122.28 1346.84 130.579 1346.33 135.693C1346.3 135.917 1346.28 136.135 1346.26 136.347C1343.64 162.563 1344.9 195.918 1345.66 205.386C1346.1 209.893 1345.89 214.439 1345.05 218.888C1344.53 221.524 1343.96 223.116 1343.2 225.257C1342.86 226.235 1342.47 227.328 1342.03 228.689C1340.07 234.757 1338.62 240.98 1337.71 247.292C1336.3 256.427 1335.55 261.257 1337.21 267.025C1337.84 269.253 1339.29 274.234 1343.33 277.108C1345.15 278.46 1347.36 279.179 1349.62 279.158C1351.89 279.136 1354.08 278.373 1355.87 276.987C1360.47 273.347 1361.23 266.42 1361.92 260.047C1362.41 255.076 1362.21 250.06 1361.33 245.144C1360.87 242.589 1360.4 241.056 1359.79 239.071C1359.24 237.281 1358.58 235.122 1357.71 231.512C1357.71 231.512 1356.39 226.017 1355.5 220.562C1354.44 214.008 1354.65 209.541 1355.01 202.1C1355.1 200.131 1355.2 197.954 1355.3 195.475L1355.3 195.423C1355.92 178.82 1356.23 170.541 1355.5 162.483C1355.48 162.213 1355.62 156.073 1355.89 143.779L1355.9 143.375C1355.94 141.6 1356.05 138.394 1357.81 135.863C1358.11 135.43 1360.27 132.415 1362.93 133.06C1365.87 133.776 1366.98 138.394 1367.04 138.666C1367.36 140.05 1367.26 140.979 1367.14 141.975C1367.03 143.019 1366.9 144.136 1367.25 145.926C1367.59 147.678 1368.23 149.356 1369.15 150.887C1370 152.278 1370.72 152.883 1371.58 153.596C1372.13 154.057 1372.74 154.563 1373.47 155.354C1375.1 157.096 1375.93 158.719 1377.55 161.901L1377.58 161.968C1379.4 165.538 1380.71 168.129 1381.29 171.648C1381.56 173.219 1381.5 173.942 1381.29 176.447C1381.19 177.737 1381.05 179.5 1380.89 182.094C1380.5 188.568 1380.32 191.875 1380.79 195.344C1381.31 199.084 1381.78 202.22 1383.81 204.64C1385.85 207.06 1389.39 208.724 1392.34 207.06C1394.84 205.649 1395.9 202.412 1396.25 201.333C1396.62 200.226 1396.68 199.557 1396.8 198.289C1396.9 197.203 1397.04 195.676 1397.45 193.055C1398.06 189.243 1398.41 188.235 1399.17 187.57C1400.49 186.403 1402.25 186.981 1402.85 187.175L1402.88 187.186C1405.48 188.073 1406.8 190.83 1407.49 192.283L1407.5 192.288C1408.88 195.329 1409.6 198.629 1409.6 201.968C1409.85 209.702 1409.69 217.444 1409.1 225.16C1408.59 231.772 1408.67 235.077 1408.76 238.987C1408.86 243.186 1408.97 248.083 1408.39 258.525C1408.23 263.994 1407.66 269.443 1406.69 274.829C1405.92 278.849 1405.24 280.925 1404.55 283.049C1403.9 285.033 1403.24 287.06 1402.48 290.75C1400.84 297.887 1400.27 305.226 1400.77 312.53C1401.3 319.134 1401.73 324.519 1405.09 329.218C1405.83 330.266 1410.48 336.508 1417.03 335.58C1422.85 334.755 1426.15 328.827 1427.55 326.298L1427.56 326.283C1430.98 320.129 1431.2 313.733 1431.37 308.748L1431.37 308.708C1431.6 300.854 1430.29 294.925 1428.57 287.695C1427.15 281.716 1426 278.519 1424.96 275.659C1424.17 273.469 1423.46 271.478 1422.74 268.588C1420.47 259.315 1421.03 252.096 1421.79 242.316C1421.87 241.216 1421.96 240.084 1422.05 238.913C1423.28 222.19 1423.17 212.142 1423.06 202.043C1422.94 191 1422.82 179.897 1424.46 159.942C1424.83 155.322 1425.07 153.074 1425.3 150.938C1425.54 148.599 1425.78 146.392 1426.16 141.348C1426.42 138.084 1426.61 135.305 1426.78 132.85C1427.31 124.962 1427.62 120.43 1429.27 113.962C1430.44 109.514 1432.09 105.204 1434.19 101.106C1436.88 95.8632 1438.9 93.7458 1440.91 92.445C1442.29 91.5275 1444.31 90.2368 1446.33 91.0435C1447.39 91.4569 1449.14 92.6971 1450.74 98.1723C1452.26 103.776 1452.72 109.612 1452.11 115.384C1451.46 123.695 1451.78 132.059 1452.09 140.424C1452.25 144.683 1452.41 148.943 1452.45 153.196C1452.48 156.297 1452.51 158.549 1452.54 160.355C1452.59 164.292 1452.62 166.113 1452.55 170.005C1452.36 181.994 1452.23 188.114 1450.64 194.718C1449.8 198.24 1449.11 199.788 1448.25 201.724C1447.37 203.703 1446.31 206.087 1444.72 211.396C1442.66 217.864 1441.25 224.522 1440.51 231.27C1439.62 239.891 1439.08 245.195 1441.42 250.882C1442.03 252.404 1444.66 258.575 1450.54 260.965C1452.7 261.751 1455.03 261.965 1457.3 261.585C1459.57 261.205 1461.7 260.245 1463.49 258.797C1468.04 255.157 1469.61 249.541 1470.62 245.689C1471.91 240.663 1472.32 235.448 1471.82 230.282C1471.11 220.965 1468.34 213.766 1463.75 201.878C1462.96 199.832 1462.33 198.291 1461.82 197.027C1460.58 194.01 1460 192.574 1459.44 189.647C1458.63 185.451 1458.67 182.384 1458.79 175.174C1458.8 174.292 1458.82 173.349 1458.83 172.334C1458.88 169.71 1458.88 167.089 1458.87 164.469C1458.87 161.611 1458.87 158.755 1458.93 155.898C1459.16 145.427 1459.58 134.963 1460 124.497C1460.4 114.466 1460.8 104.433 1461.04 94.3911C1461.04 94.3911 1461.13 91.0636 1463.06 82.4224C1463.74 79.4075 1464.4 77.0581 1466.08 76.0498C1466.62 75.7665 1467.21 75.6084 1467.82 75.5875C1468.43 75.5665 1469.03 75.6832 1469.59 75.9288C1471.42 76.5616 1472.35 77.9288 1473.32 79.3613C1473.86 80.143 1474.4 80.9441 1475.11 81.6561C1478.64 85.3465 1485.11 85.891 1487.95 82.6644C1489.29 81.148 1489.42 79.2699 1489.57 77.1516C1489.72 75.1006 1489.88 72.8244 1491.17 70.4335C1492.1 68.8282 1493.37 67.4483 1494.9 66.3921C1496.43 65.3359 1498.17 64.6295 1500 64.3231V-27H1198.9V-7.54814C999.722 -9.96475 801.409 -7.76739 602.247 -5.03825V-9.51565H0V81.8075C1.83055 82.1152 3.57089 82.8222 5.09745 83.8782C6.62401 84.9342 7.89933 86.3135 8.83284 87.9179C10.1241 90.3116 10.2828 92.5903 10.4258 94.6433C10.5731 96.7585 10.7038 98.6341 12.0393 100.149C14.8928 103.375 21.346 102.831 24.8852 99.1404C25.5994 98.4262 26.1454 97.6223 26.6781 96.8378C27.6497 95.4071 28.5773 94.0413 30.4007 93.4031C30.9602 93.1624 31.5663 93.0493 32.175 93.072C32.7837 93.0947 33.3797 93.2525 33.9197 93.5342C35.5935 94.5425 36.259 96.8919 36.9447 99.8966C38.8706 108.548 38.9613 111.875 38.9613 111.875C39.1965 121.841 39.596 131.803 39.9954 141.764C40.418 152.302 40.8406 162.84 41.0687 173.383C41.1318 176.239 41.1291 179.096 41.1263 181.952C41.1238 184.571 41.1213 187.19 41.1695 189.808C41.1839 190.835 41.1989 191.788 41.2128 192.678V192.678C41.3254 199.874 41.3732 202.932 40.5746 207.131C40.0065 210.057 39.4233 211.487 38.1945 214.501L38.1943 214.502C37.6785 215.767 37.049 217.311 36.259 219.362L36.2374 219.418C31.6625 231.272 28.8871 238.464 28.1925 247.766C27.6888 252.933 28.0984 258.148 29.4025 263.173C30.4108 267.025 31.9838 272.641 36.5212 276.281C38.3111 277.725 40.4427 278.682 42.7104 279.062C44.9782 279.442 47.3055 279.231 49.468 278.449C55.3464 276.059 57.9882 269.889 58.6033 268.366C60.9307 262.708 60.3936 257.429 59.5241 248.885L59.5108 248.754C58.7741 242.018 57.3725 235.371 55.3263 228.911C53.736 223.6 52.674 221.213 51.7923 219.232C50.9298 217.293 50.24 215.743 49.3974 212.223C47.8244 205.629 47.6933 199.498 47.4917 187.519C47.4286 183.576 47.4532 181.759 47.5078 177.711V177.711L47.5078 177.711C47.5319 175.931 47.5617 173.721 47.5925 170.711C47.6297 166.483 47.7905 162.249 47.9513 158.015C48.27 149.625 48.5887 141.235 47.9454 132.899C47.3154 127.129 47.7668 121.292 49.2764 115.687C50.8796 110.212 52.6341 108.971 53.6928 108.548C55.7094 107.751 57.7261 109.042 59.1175 109.95C61.1342 111.26 63.1508 113.378 65.8329 118.611C67.926 122.712 69.5756 127.026 70.7535 131.477C72.3957 137.931 72.7063 142.457 73.2455 150.315L73.2456 150.316C73.4149 152.783 73.6067 155.577 73.8692 158.863C74.2552 163.993 74.4873 166.185 74.7397 168.569L74.7397 168.569L74.7398 168.57C74.9621 170.67 75.2002 172.919 75.5732 177.456C77.2045 197.39 77.0837 208.491 76.9636 219.526C76.8536 229.635 76.7441 239.689 77.9831 256.428C78.0696 257.596 78.1572 258.725 78.2424 259.823C79.0017 269.607 79.562 276.827 77.2773 286.102C76.5656 288.988 75.8483 290.978 75.0606 293.163C74.0291 296.024 72.8771 299.22 71.4593 305.2C69.7452 312.439 68.3739 318.308 68.6461 326.223C68.8175 331.214 69.0394 337.627 72.4576 343.798L72.4579 343.799C73.8596 346.32 77.1668 352.268 82.9944 353.095C89.5485 354.022 94.1868 347.771 94.943 346.722C98.2861 342.054 98.7204 336.686 99.2516 330.12L99.2586 330.035C99.7617 322.733 99.1841 315.398 97.5444 308.265C96.7782 304.565 96.1182 302.539 95.4708 300.55C94.7807 298.431 94.1049 296.355 93.3297 292.344C92.3648 286.958 91.7952 281.508 91.6256 276.039C91.0511 265.594 91.1665 260.697 91.2654 256.495C91.3575 252.586 91.4354 249.279 90.9299 242.664C90.3335 234.949 90.1652 227.207 90.4257 219.473C90.435 216.133 91.1533 212.834 92.5331 209.793L92.5492 209.76C93.2492 208.309 94.5697 205.571 97.1512 204.701C97.7482 204.43 98.4063 204.323 99.0583 204.391C99.7103 204.458 100.333 204.697 100.862 205.084C101.608 205.75 101.971 206.748 102.566 210.559C102.985 213.215 103.129 214.747 103.232 215.835L103.232 215.835C103.348 217.077 103.411 217.741 103.766 218.838L103.776 218.869C104.149 219.988 105.211 223.177 107.688 224.575C110.632 226.239 114.182 224.575 116.218 222.155C118.255 219.735 118.719 216.589 119.243 212.858C119.717 209.39 119.536 206.082 119.143 199.609C118.985 196.952 118.839 195.167 118.733 193.87C118.535 191.435 118.476 190.715 118.739 189.163C119.334 185.644 120.645 183.052 122.46 179.483L122.461 179.482C124.094 176.256 124.92 174.623 126.574 172.858C127.305 172.06 127.915 171.552 128.473 171.089C129.323 170.382 130.049 169.778 130.889 168.402C131.787 166.861 132.421 165.181 132.765 163.431C133.105 161.639 132.979 160.523 132.862 159.483C132.75 158.485 132.646 157.557 132.967 156.171C133.027 155.898 134.136 151.28 137.08 150.564C139.732 149.919 141.89 152.924 142.193 153.368C143.957 155.898 144.058 159.105 144.098 160.88C144.153 163.32 144.203 165.524 144.248 167.493L144.249 167.547L144.249 167.555C144.433 175.67 144.526 179.768 144.502 179.987C143.766 188.046 144.078 196.327 144.702 212.924L144.703 212.969C144.797 215.469 144.902 217.662 144.997 219.644V219.645C145.353 227.058 145.568 231.527 144.502 238.066C143.614 243.511 142.293 249.016 142.293 249.016C141.428 252.621 140.767 254.777 140.218 256.566C139.61 258.55 139.14 260.083 138.684 262.639C137.801 267.555 137.598 272.57 138.079 277.542C138.774 283.924 139.531 290.841 144.129 294.481C145.918 295.871 148.113 296.636 150.378 296.66C152.644 296.683 154.854 295.964 156.672 294.612C160.705 291.739 162.167 286.748 162.793 284.529C164.456 278.763 163.71 273.934 162.3 264.794L162.298 264.786C161.38 258.479 159.936 252.26 157.983 246.193C157.548 244.867 157.167 243.794 156.825 242.834L156.825 242.833C156.051 240.655 155.483 239.055 154.958 236.382C154.128 231.932 153.925 227.388 154.353 222.881C155.119 213.423 156.37 180.068 153.758 153.852C153.736 153.631 153.714 153.403 153.69 153.168L153.69 153.162V153.162C153.18 148.045 152.356 139.764 154.958 130.802C157.096 123.451 160.352 119.71 161.683 118.319C163.262 116.517 165.26 115.132 167.501 114.285C168.016 114.104 173.874 112.218 178.643 116.302C180.092 117.552 180.548 118.597 181.601 121.008C182.417 122.876 183.591 125.564 185.863 129.803C189.513 136.64 190.773 137.749 192.094 138.334C195.197 139.714 198.371 138.135 200.518 137.066L200.524 137.063C202.639 136.003 203.789 134.886 204.848 133.858C206.025 132.715 207.091 131.68 209.246 130.953L209.25 130.951C210.854 130.407 213.694 129.442 216.173 131.205C216.939 131.739 218.441 133.1 220.085 139.1C221.074 142.699 221.29 144.985 221.533 147.565L221.533 147.565C221.682 149.14 221.841 150.825 222.192 152.984C223.312 159.861 223.987 163.965 226.609 167.101C231.418 172.879 239.112 171.084 240.362 170.791C243.238 170.289 245.875 168.875 247.884 166.758C249.226 165.318 249.957 163.905 250.65 162.566C251.518 160.887 252.327 159.323 254.206 157.966C255.696 156.872 257.481 156.253 259.329 156.191C264.007 156.13 267.274 160.385 268.252 161.666C271.549 165.941 272.578 171.185 273.374 177.799C274.554 187.626 274.344 193.113 274.099 199.464V199.464C273.899 204.673 273.677 210.463 274.181 219.705C274.232 220.652 274.286 221.546 274.338 222.401C274.653 227.634 274.879 231.373 273.778 236.513C273.485 237.875 272.87 240.395 267.96 251.547C265.758 256.532 264.345 259.487 263.376 261.514C261.971 264.453 261.498 265.443 260.902 267.842C260.034 271.26 258.24 278.389 260.196 286.697C260.69 288.805 262.908 298.202 270.229 302.618C272.089 303.714 274.16 304.406 276.305 304.647C278.451 304.889 280.624 304.675 282.681 304.02C287.744 302.566 292.032 299.18 294.62 294.592C298.624 287.795 298.305 280.253 298.034 273.839L298.028 273.7C297.541 265.168 295.597 256.782 292.28 248.905C290.896 246.08 289.756 243.142 288.872 240.123C287.62 235.429 287.043 230.581 287.158 225.724C287.198 220.813 287.063 215.902 286.927 210.991C286.756 204.811 286.585 198.63 286.765 192.45C287.016 183.584 287.091 176.293 287.157 169.888V169.886C287.303 155.722 287.405 145.895 289.266 132.959C290.138 126.607 292.074 120.448 294.993 114.739C297.322 110.282 299.641 105.987 304.068 103.92C311.059 100.684 317.387 105.6 317.81 105.928L317.821 105.936C322.268 109.576 323.871 115.142 324.738 118.419C325.837 122.332 325.958 125.478 326.15 130.771C326.288 135.481 326.154 140.194 325.746 144.888C325.472 148.25 325.172 150.514 324.948 152.206L324.948 152.206C324.571 155.05 324.409 156.278 324.94 158.389C325.403 160.272 326.237 162.044 327.391 163.602C328.546 165.16 329.999 166.472 331.665 167.464C334.862 169.158 339.863 169.672 342.757 166.183C344.451 164.167 344.642 160.365 344.965 152.944C345.388 143.194 344.864 135.49 344.864 135.49C344.687 132.882 344.492 130.989 344.338 129.502L344.338 129.501C344.02 126.421 343.883 125.088 344.461 122.755C344.844 121.202 346.477 115.626 350.783 113.327C352.912 112.3 355.352 112.12 357.609 112.823C363.861 114.164 367.42 119.781 368.146 120.97C369.158 122.696 369.967 124.534 370.556 126.446C371.487 129.46 371.959 132.597 371.957 135.752C372.025 141.86 372.272 147.956 372.52 154.054L372.52 154.056L372.52 154.057C372.867 162.587 373.214 171.119 373.067 179.685L373.05 180.615C372.527 210.124 372.264 224.922 372.663 229.233C373.189 234.657 373.156 240.121 372.562 245.538C372.162 249.641 371.355 253.694 370.153 257.637C368.869 261.721 367.667 263.812 366.394 266.028C365.348 267.85 364.252 269.757 363.024 272.924C361.073 278.213 359.825 283.735 359.313 289.349C358.113 299.069 357.407 304.806 359.918 310.745C360.95 313.233 362.472 315.488 364.393 317.376C366.314 319.264 368.595 320.747 371.1 321.736C378.37 324.761 384.572 321.555 386.85 320.345C390.966 318.375 394.319 315.104 396.389 311.038C398.97 305.906 398.94 300.894 398.89 294.229C398.858 285.965 397.363 277.772 394.473 270.03C393.694 268.021 393.109 266.845 392.554 265.728C391.853 264.316 391.199 263 390.258 260.219C388.613 255.215 387.504 250.05 386.951 244.812C385.833 235.897 385.23 226.925 385.146 217.94C385.146 216.815 385.162 213.588 385.183 209.021C385.261 192.599 385.421 158.85 385.247 143.174C385.065 135.785 386.325 128.431 388.958 121.525C390.193 118.243 392.03 115.221 394.372 112.611C396.036 110.817 399.152 107.57 403.81 107.005C405.257 106.738 406.744 106.794 408.167 107.169C409.589 107.543 410.911 108.228 412.038 109.173C412.986 110 415.113 112.198 416.858 119.871C418.001 125.275 418.492 130.796 418.32 136.317C418.32 140.421 418.275 144.526 418.23 148.631C418.141 156.841 418.051 165.051 418.32 173.252C418.571 177.391 418.266 181.545 417.412 185.603C416.873 187.977 416.385 189.188 415.885 190.43L415.885 190.43C415.45 191.51 415.005 192.614 414.508 194.527C413.581 198.096 411.292 206.909 414.811 212.868C416.696 216.065 420.518 218.858 424.037 217.577C428.927 215.802 430.026 207.373 430.157 206.365C430.621 202.866 429.734 199.064 427.949 191.593C427.186 188.394 426.681 186.677 426.261 185.246L426.261 185.245C425.898 184.01 425.597 182.987 425.247 181.409C424.099 176.307 424.084 172.739 424.059 166.782C424.055 165.675 424.05 164.486 424.037 163.189C423.98 157.334 423.802 152.841 423.647 148.926C423.359 141.682 423.151 136.417 423.936 128.17C424.176 124.347 425.206 120.615 426.961 117.209C428.05 115.193 430.611 110.585 434.786 110.212C438.96 109.839 442.005 113.882 442.852 115.052C444.622 117.591 444.882 119.737 445.214 122.473C445.474 124.615 445.778 127.12 446.885 130.459L446.892 130.478C448.024 133.916 450.627 141.817 456.515 144.343C462.01 146.703 467.142 142.992 467.556 142.69C474.259 137.655 475.543 126.135 475.856 123.32L475.858 123.307C475.868 123.218 475.876 123.138 475.885 123.068C476.085 120.976 476.082 119.238 476.079 117.648C476.073 114.685 476.068 112.232 477.387 108.951C478.073 107.237 479.404 104.051 482.207 102.327C485.978 100.028 490.626 101.49 493.439 104.343C495.658 106.622 496.817 109.859 497.957 120.396C498.844 129.197 499.281 138.038 499.267 146.884C499.499 163.612 499.54 167.141 499.57 172.364C499.681 191.885 499.479 194.295 499.066 197.199C498.504 201.1 496.965 206.667 493.893 217.78L493.843 217.96C492.475 222.909 491.46 226.419 490.689 229.085L490.689 229.087C489.027 234.834 488.5 236.656 488.025 240.506L488.019 240.555C487.164 247.546 486.337 254.307 488.932 261.52C489.356 262.719 494.377 276.08 504.884 276.806C512.95 277.36 518.274 270.08 518.829 269.284C523.855 262.247 523.529 253.206 523.348 248.155L523.346 248.109C523.164 243.067 521.329 236.554 517.629 224.04C516.23 219.283 515.386 216.691 514.782 214.838L514.782 214.837C514.06 212.618 513.683 211.46 513.112 208.916C511.73 202.715 511.236 197.431 510.803 185.603C510.478 176.59 510.498 172.212 510.52 167.444V167.443C510.538 163.618 510.556 159.542 510.399 152.621C510.348 150.336 510.288 148.201 510.232 146.191L510.232 146.187V146.187C509.897 134.274 509.687 126.774 512.214 118.742C512.809 116.836 514.574 111.684 518.627 108.165C520.089 106.904 522.176 105.14 524.848 105.624C526.014 105.862 527.098 106.397 527.996 107.178C528.893 107.959 529.574 108.959 529.971 110.081C530.378 111.225 530.308 112.024 530.221 113.031C530.159 113.746 530.089 114.565 530.172 115.687C530.394 119.297 532.017 124.762 535.093 125.77C537.634 126.597 540.679 124.207 542.151 121.434C543.026 119.751 543.132 118.273 543.237 116.798C543.351 115.197 543.464 113.602 544.561 111.754L544.567 111.744C544.858 111.259 546.516 108.494 549.078 108.064C550.608 107.804 551.573 108.526 552.564 109.267C553.494 109.962 554.445 110.673 555.904 110.605C558.305 110.495 560.135 108.359 562.443 105.663L562.529 105.563C563.928 103.883 564.798 102.454 565.471 101.348C566.413 99.8 566.968 98.8884 568.045 98.8177C570.204 98.6771 571.964 102.159 572.456 103.133L572.461 103.143C573.924 106.06 573.992 108.693 574.129 114.009C574.14 114.446 574.152 114.9 574.165 115.374C574.285 119.709 574.388 121.157 574.481 122.483V122.483V122.484C574.583 123.934 574.675 125.24 574.77 130.015C574.931 138.303 575.002 142.498 574.468 145.14C573.881 148.051 573.22 149.439 572.526 150.896C571.847 152.32 571.137 153.811 570.434 156.856C569.199 161.855 568.993 167.052 569.829 172.132C570.515 175.984 571.846 183.395 576.958 186.249C578.499 187.157 580.287 187.559 582.068 187.398C583.85 187.237 585.536 186.521 586.89 185.351C590.815 181.868 590.92 175.29 590.998 170.46L591.004 170.065C591.034 164.03 589.697 158.066 587.092 152.621C586.144 150.67 585.435 149.662 584.787 148.741C584.056 147.702 583.403 146.774 582.574 144.726C581.637 142.387 580.78 139.342 580.265 130.61C579.741 121.656 579.408 115.858 580.669 108.064C581.556 102.609 582.312 98.2027 585.186 93.9476C586.874 91.304 589.228 89.1514 592.012 87.7061C593.793 86.8404 595.725 86.3864 597.668 86.3528L597.669 86.4052C599.465 86.7386 601.173 87.4379 602.688 88.4596C604.202 89.4813 605.49 90.8036 606.471 92.3442C607.555 94.1231 607.737 96.1054 607.915 98.0453C608.129 100.383 608.337 102.659 610.112 104.444C613.61 108.013 619.186 106.602 622.715 103.254C623.409 102.59 623.937 101.814 624.465 101.038L624.465 101.038C625.421 99.6345 626.377 98.2295 628.312 97.4765C628.869 97.2565 629.467 97.1555 630.066 97.1798C630.665 97.2041 631.252 97.3533 631.79 97.6177C633.323 98.4748 634.432 102.387 634.745 103.668C635.642 107.449 636.761 112.45 636.852 115.485C637.047 121.597 637.267 127.67 637.485 133.712C637.999 147.953 638.507 162.016 638.677 175.984C638.727 179.75 638.656 184.098 638.595 187.762V187.764C638.57 189.269 638.548 190.659 638.536 191.845C638.518 193.395 638.521 194.82 638.524 196.165V196.167C638.534 200.857 638.542 204.568 637.649 209.168C636.98 212.629 636.1 214.642 635.006 217.141C634.45 218.413 633.838 219.811 633.172 221.59C632.667 222.947 632.153 224.289 631.641 225.625C628.73 233.225 625.88 240.666 625.014 249.944C624.765 255.101 625.154 260.269 626.174 265.331C626.779 268.557 630.903 275.333 632.99 278.036C635.743 281.625 645.09 280.627 645.463 280.526C650.878 279.256 654.245 272.732 655.092 270.796C657.636 265.053 657.115 259.868 656.615 254.89C656.484 253.592 656.355 252.309 656.282 251.033C655.936 244.977 653.512 235.96 652.43 231.938L652.43 231.937L652.37 231.714C651.284 227.654 650.287 225.318 649.355 223.135C648.306 220.678 647.339 218.413 646.421 214.098C644.831 206.666 644.847 199.273 644.867 189.99L644.868 189.576C644.868 186.623 644.951 183.573 645.056 179.689L645.057 179.665C645.112 177.641 645.172 175.39 645.231 172.808C645.29 170.129 645.428 167.034 645.577 163.701L645.577 163.698C645.964 155.026 646.423 144.74 645.745 135.964C645.523 133.131 645.967 123.178 647.056 119.609C647.863 116.997 649.688 113.095 651.271 112.551C653.57 111.692 654.471 112.261 655.697 113.036C656.084 113.28 656.503 113.544 657.008 113.791C659.509 115.008 661.493 118.347 662.954 120.807C663.26 121.323 663.544 121.8 663.804 122.211C665.599 125.054 668.453 133.221 668.785 134.542C670.877 142.776 671.399 149.378 671.958 156.444L671.958 156.446C672.113 158.404 672.271 160.398 672.466 162.473C672.788 165.874 673.136 168.904 673.485 171.942L673.485 171.945L673.486 171.95C673.825 174.899 674.165 177.855 674.482 181.167C675.722 194.857 676.052 208.335 676.385 221.898V221.899C676.696 234.599 677.009 247.375 678.072 260.471C678.094 260.747 678.117 261.024 678.14 261.303C678.17 261.664 678.2 262.028 678.23 262.394C678.939 270.942 679.761 280.845 677.699 290.085C677.047 293.014 676.18 295.688 675.274 298.479L675.274 298.48C674.191 301.82 673.053 305.329 672.163 309.646C672.101 309.945 672.037 310.252 671.971 310.565C670.845 315.954 669.278 323.446 669.773 330.649C670.096 335.489 670.671 342.144 673.968 348.255C675.319 350.745 680.3 356.22 684.313 357.067C688.8 358.015 694.911 352.308 695.859 350.967C699.347 346.035 699.727 340.979 700.057 336.588L700.058 336.585C700.126 335.671 700.193 334.786 700.285 333.937C701.062 326.767 699.428 317.309 698.44 312.52C697.563 308.283 696.791 305.943 696.036 303.653L696.036 303.652C695.315 301.467 694.61 299.328 693.842 295.631C692.914 290.367 692.291 285.055 691.977 279.719C691.667 274.477 691.569 269.402 691.472 264.338V264.335V264.332C691.356 258.345 691.241 252.374 690.777 246.163C690.192 238.389 689.869 231.31 689.97 222.598C689.97 221.348 690.454 215.591 692.037 213.09C692.126 212.95 692.241 212.736 692.382 212.475L692.383 212.473C693.126 211.095 694.583 208.39 696.625 208.119C696.674 208.112 696.736 208.098 696.808 208.079C696.868 208.063 696.936 208.044 697.01 208.023C697.799 207.798 699.313 207.367 700.315 208.603C701.217 210.27 701.789 212.094 701.999 213.977C702.079 214.628 702.138 215.28 702.197 215.939L702.198 215.942C702.381 217.965 702.57 220.048 703.361 222.336C703.915 223.929 705.014 226.833 707.394 227.852C708.872 228.419 710.498 228.473 712.01 228.005C713.522 227.537 714.833 226.574 715.733 225.27C717.749 222.528 718.193 219.452 718.626 215.883C719.06 212.314 718.626 206.153 718.344 202.926C718.265 202.025 718.171 201.121 718.077 200.227C717.776 197.351 717.487 194.591 717.779 192.46C718.239 189.137 719.393 186.682 720.529 184.264C720.789 183.71 721.049 183.158 721.298 182.598C722.296 180.166 723.656 177.899 725.332 175.873C725.961 175.162 726.617 174.509 727.238 173.89L727.238 173.89C728.149 172.984 728.983 172.153 729.546 171.326C730.395 169.805 731.014 168.167 731.382 166.465C731.653 164.681 731.567 163.644 731.481 162.595C731.39 161.498 731.299 160.389 731.614 158.399C731.674 158.036 733.63 153.569 735.516 153.035C737.158 152.569 739.488 154.627 740.302 155.347L740.304 155.348C740.424 155.454 740.511 155.531 740.557 155.566C742.349 157.087 742.67 162.446 742.704 163.016L742.705 163.027C742.967 166.607 743.37 180.884 743.35 181.318C742.934 192.62 743.136 203.937 743.955 215.218C744.409 223.193 744.964 233.256 744.056 239.951C743.571 243.647 742.898 247.315 742.039 250.942C741.561 252.856 741.045 254.897 740.551 256.851C739.744 260.043 738.996 263 738.571 264.776C737.492 269.233 737.865 277.884 738.036 279.467C738.924 287.534 739.65 292.454 744.349 297.022C748.18 300.753 753.312 299.341 756.68 297.204C760.33 294.895 762.024 290.367 762.73 287.231C764.23 280.565 763.661 277.027 762.717 271.156L762.716 271.155C762.493 269.762 762.248 268.238 762.004 266.511C760.935 260.367 759.45 254.303 757.557 248.361C756.323 245.19 755.292 241.943 754.472 238.641C753.645 234.167 753.384 229.607 753.696 225.069C755.065 201.875 754.569 178.609 752.213 155.495C751.74 150.837 751.296 138.717 753.131 132.959C754.573 128.452 756.62 123.158 759.534 120.295C760.137 119.702 760.583 119.235 760.95 118.852C762.355 117.383 762.6 117.127 766.078 115.616C766.894 115.263 774.003 113.993 776.746 117.381C778.228 119.206 782.554 126.395 783.572 129.662C784.298 131.971 787.988 136.851 789.461 137.466C792.595 138.784 795.255 137.416 797.226 136.402L797.229 136.401C797.444 136.29 797.651 136.183 797.85 136.085C799.822 135.115 800.973 133.983 802.086 132.887C803.358 131.635 804.581 130.431 806.925 129.571C807.097 129.508 807.277 129.438 807.463 129.366C809.117 128.724 811.299 127.877 813.791 129.48C814.648 130.025 816.957 133.756 817.33 136.539C817.445 137.396 817.633 138.569 817.843 139.879L817.844 139.886C818.314 142.829 818.896 146.462 819.014 148.77C819.226 152.803 821.031 158.913 822.977 161.384C826.567 165.891 832.919 165.276 836.156 164.54C840.379 163.609 841.247 162.79 843.431 160.729L843.44 160.721C843.62 160.55 843.809 160.372 844.01 160.184C845.324 158.962 846.068 157.608 846.816 156.246C847.723 154.596 848.636 152.935 850.575 151.482C852.125 150.657 853.775 150.037 855.485 149.637C858.097 149.032 862.543 151.532 863.491 152.662C866.839 156.574 867.151 159.891 867.222 164.015C867.313 169.909 866.504 174.891 865.674 180.011C864.941 184.526 864.191 189.149 864.026 194.597L864.017 194.871V194.872C863.898 198.663 863.746 203.483 863.017 209.813C862.051 215.325 860.775 220.779 859.196 226.148C858.598 227.975 857.705 229.911 856.748 231.981C855.025 235.714 853.098 239.887 852.339 244.66C851.331 250.922 851.24 259.513 854.658 267.68C855.525 269.757 860.305 278.62 865.195 279.215C865.412 279.242 865.626 279.269 865.837 279.296L865.839 279.296C869.146 279.714 871.758 280.045 875.359 277.249C878.912 274.174 881.448 270.091 882.629 265.543C883.46 262.466 883.814 256.528 884.101 251.728V251.727C884.245 249.308 884.372 247.178 884.535 245.85C885.462 238.247 882.972 225.855 881.439 222.003C880.038 218.483 879.337 216.467 878.765 214.825L878.765 214.824C878.423 213.843 878.128 212.996 877.759 212.041C876.115 207.776 876.105 200.678 876.276 198.802C877.043 189.949 877.89 181.157 879.059 174.421C880.522 166.043 881.426 158.88 882.331 151.701C883.299 144.03 884.27 136.341 885.926 127.131C886.36 124.751 889.677 115.909 892.067 111.492C893.398 109.032 898.55 103.688 901 101.943C904.872 99.1806 914.008 103.516 914.371 103.829C919.443 108.289 920.521 112.031 921.797 116.463L921.873 116.725C923.02 120.688 923.078 122.507 923.178 125.613C923.215 126.767 923.258 128.098 923.365 129.783C923.466 131.376 923.476 140.39 922.881 143.173C922.243 147.513 921.943 151.895 921.983 156.281C922.094 160.204 927.62 165.034 928.245 165.296C933.75 167.595 935.939 167.958 939.871 164.136C941.794 162.263 941.918 157.134 942.008 153.435V153.433C942.027 152.633 942.045 151.899 942.079 151.28C942.382 146.702 942.23 137.97 942.079 134.522C941.973 132.372 941.773 130.815 941.6 129.467C941.263 126.838 941.027 125 941.787 121.101C942.301 118.46 944.923 113.831 948.018 112.208C950.13 111.351 952.465 111.213 954.663 111.815C959.886 113.539 962.538 116.14 965.371 120.355C966.077 121.392 966.659 123.001 967.152 124.365L967.152 124.366C967.364 124.951 967.559 125.491 967.741 125.921C968.598 127.938 969.092 134.24 969.112 135.339C969.193 140.03 969.362 145.988 969.537 152.131V152.132C969.838 162.77 970.156 173.96 970.06 180.078C969.946 186.875 969.73 192.869 969.528 198.493C969.139 209.285 968.8 218.711 969.324 229.828C969.346 230.301 969.367 230.75 969.387 231.179C969.691 237.678 969.776 239.492 969.142 246.586C968.725 250.587 967.949 254.542 966.823 258.404C965.81 261.394 964.23 264.782 962.722 268.014L962.722 268.014C961.785 270.025 960.875 271.974 960.148 273.73C958.424 277.905 958.132 285.386 958.071 288.33C957.947 292.166 958.668 295.898 959.304 299.186C959.702 301.249 960.067 303.137 960.168 304.766C960.511 310.251 967.63 316.967 969.092 317.814C976.049 321.847 979.901 320.465 985.064 318.288C990.062 316.179 991.677 313.352 994.099 309.111L994.34 308.688C996.173 305.458 995.788 298.91 995.541 294.716V294.716V294.714C995.48 293.672 995.427 292.776 995.419 292.112C995.338 285.739 992.162 274.264 991.134 271.441C989.986 268.278 989.22 266.704 988.57 265.368C987.951 264.097 987.437 263.04 986.798 261.035C985.183 256.187 984.064 251.187 983.46 246.112C983.04 240.499 982.661 237.768 982.362 235.615C981.83 231.78 981.553 229.778 981.746 216.599C981.948 200.799 982.392 165.054 982.21 142.992C982.21 140.088 983.329 125.629 986.072 121.071C986.447 120.447 986.835 119.631 987.264 118.732L987.264 118.732C988.324 116.508 989.626 113.776 991.557 112.168C992.057 111.752 992.535 111.315 993.014 110.877C995.135 108.938 997.267 106.99 1001.3 106.834C1001.35 106.832 1001.4 106.829 1001.45 106.827C1001.53 106.823 1001.61 106.819 1001.69 106.814C1003.46 106.72 1007.03 106.53 1009.55 109.596C1010.37 110.605 1013.69 116.261 1014.08 120.446C1014.17 121.36 1014.3 122.55 1014.46 123.894L1014.46 123.903L1014.46 123.904C1014.91 127.866 1015.51 133.167 1015.41 136.74C1015.07 149.526 1015.08 161.283 1015.19 174.633C1015.32 178.785 1014.98 182.938 1014.18 187.015C1013.8 188.557 1013.39 189.663 1012.93 190.89C1012.41 192.302 1011.82 193.874 1011.16 196.453C1010.08 200.637 1008.55 209.137 1011.56 214.602C1013.18 217.516 1017.32 220.219 1020.53 219.382C1024.98 218.242 1026.5 210.509 1026.75 208.643C1027.38 203.791 1026.49 200.348 1025.59 196.817C1025.29 195.645 1024.98 194.463 1024.73 193.216C1024.34 191.141 1023.82 189.351 1023.32 187.613C1022.86 186.015 1022.42 184.461 1022.09 182.77C1020.99 177.131 1020.97 171.709 1020.95 166.216V166.215C1020.95 165.751 1020.95 165.286 1020.94 164.821L1020.94 164.247C1020.91 160.575 1020.81 157.06 1020.72 153.598C1020.48 145.311 1020.26 137.325 1021.05 128.2C1021.39 124.339 1022.45 120.576 1024.19 117.108C1025.19 115.344 1028.64 110.635 1031.83 110.454C1035.02 110.272 1038.78 113.478 1039.66 115.142C1041.88 119.284 1042.24 121.786 1042.71 125.02C1042.97 126.833 1043.27 128.877 1043.94 131.568C1044.79 134.956 1049.46 142.659 1053.09 145.059C1056.49 147.257 1063.47 143.95 1063.85 143.738C1070.42 140.108 1072.29 127.837 1072.73 124.772C1073.19 121.481 1073.2 119.385 1073.21 117.63C1073.23 115.085 1073.24 113.259 1074.62 109.546C1075.41 107.419 1076.64 104.363 1079.5 103.194C1083.35 101.621 1086.98 101.449 1090.74 105.714C1093.69 109.092 1094.5 116.14 1095.01 121.979C1095.48 127.313 1096.02 143.375 1096.02 147.63C1096.02 155.072 1096.16 170.015 1096.2 172.788C1096.21 174.008 1096.23 175.206 1096.25 176.379L1096.25 176.442C1096.36 185.207 1096.46 192.634 1095.73 198.358C1095.45 200.466 1095.22 202.416 1095 204.249C1094.31 210.05 1093.75 214.687 1092.58 219.452C1090.63 226.946 1089.25 234.577 1088.46 242.281C1087.67 250.328 1088.3 252.582 1090.33 259.844C1090.69 261.135 1091.09 262.584 1091.54 264.252C1092.05 266.087 1096.06 270.816 1102.36 270.947C1107.19 271.038 1112.44 266.44 1113.3 265.583C1118.04 260.575 1117.98 257.903 1117.83 250.438C1117.82 250.117 1117.81 249.788 1117.81 249.45C1117.68 242.778 1115.88 236.471 1114.17 230.437C1113.76 229.029 1113.37 227.637 1113 226.259C1111.95 222.393 1111.42 219.462 1110.85 216.329L1110.85 216.327C1110.53 214.557 1110.2 212.723 1109.75 210.62C1108.29 202.905 1107.52 195.077 1107.43 187.227C1107.19 179.874 1107.17 172.686 1107.16 165.35V165.34V165.316C1107.15 161.596 1107.15 157.839 1107.11 154.003C1107.09 151.915 1107.04 149.842 1106.98 147.774L1106.98 147.76C1106.74 138.529 1106.5 129.42 1109.33 119.72C1110.03 117.3 1112.69 111.754 1115.87 109.395C1115.99 109.307 1116.12 109.205 1116.27 109.092C1117.54 108.109 1119.81 106.342 1122.08 107.066C1123.97 107.661 1126.35 109.082 1127.06 111.593C1127.39 112.697 1127.33 113.667 1127.28 114.743V114.744C1127.23 115.516 1127.19 116.342 1127.28 117.31C1127.55 120.406 1128.48 125.941 1132.13 127.171C1135.15 128.18 1137.75 125.528 1139.09 123.007C1139.89 121.51 1140.08 120.05 1140.26 118.546C1140.48 116.838 1140.7 115.071 1141.84 113.126C1142.12 112.652 1144.3 109.667 1146.31 109.717C1147.45 109.717 1148.45 110.296 1149.49 110.904C1150.57 111.537 1151.71 112.201 1153.13 112.279C1155.38 112.41 1158.47 108.921 1159.6 107.469C1160.07 106.865 1160.56 106.08 1161.07 105.26C1162.33 103.247 1163.71 101.027 1165.2 100.784C1167.38 100.418 1168.67 103.07 1169.36 104.481L1169.43 104.619C1169.49 104.746 1169.54 104.86 1169.6 104.958C1171.22 108.06 1171.27 111.764 1171.31 114.974V114.975C1171.32 115.75 1171.33 116.497 1171.36 117.199C1171.55 121.762 1171.69 125.951 1171.82 130.097L1171.87 131.951C1172.01 136.276 1172.07 143.577 1171.44 146.612C1170.77 149.895 1170.06 151.359 1169.33 152.864C1168.6 154.364 1167.85 155.905 1167.1 159.327C1166.5 162.12 1165.24 168.906 1166.48 174.361C1166.54 174.626 1166.61 174.933 1166.68 175.272L1166.68 175.283C1167.43 178.811 1168.94 185.884 1173.44 188.043C1176.27 189.384 1180.36 189.677 1183.26 187.217C1186.99 184.051 1187.38 176.74 1187.58 172.922C1187.59 172.764 1187.6 172.611 1187.6 172.465C1187.96 166.203 1185.7 158.923 1184.18 155.324C1183 152.536 1182.32 151.653 1181.7 150.843C1181.04 149.986 1180.44 149.211 1179.4 146.35C1178.18 143.012 1177.63 137.87 1177.38 132.294C1176.99 124.93 1177.17 117.548 1177.91 110.212C1178.68 105.395 1180.17 100.722 1182.33 96.3472C1183.96 93.3223 1188.24 90.4687 1188.98 90.136C1193.45 88.089 1195.33 88.4421 1198.87 89.107L1198.87 89.1072C1199.14 89.1576 1199.41 89.2099 1199.7 89.263C1201.85 91.4752 1203.4 94.355 1204.95 97.3152Z" fill="#D5E8ED"/>
</g>
</g>
</g>
<defs>
<clipPath id="clip0">
<rect width="1500" height="357" fill="white"/>
</clipPath>
</defs>
</svg>
